<?xml version="1.0" standalone="no"?>
<!DOCTYPE svg PUBLIC "-//W3C//DTD SVG 20010904//EN"
 "http://www.w3.org/TR/2001/REC-SVG-20010904/DTD/svg10.dtd">
<svg version="1.0" xmlns="http://www.w3.org/2000/svg"
 width="512.000000pt" height="512.000000pt" viewBox="0 0 512.000000 512.000000"
 preserveAspectRatio="xMidYMid meet">
<metadata>
Created by potrace 1.14, written by Peter Selinger 2001-2017
</metadata>
<g transform="translate(0.000000,512.000000) scale(0.100000,-0.100000)"
fill="#000000" stroke="none">
<path d="M3490 5040 c-118 -67 -232 -114 -301 -124 -25 -4 -57 -9 -70 -11 -14
-3 -87 -7 -164 -9 -154 -5 -196 -10 -271 -31 -107 -30 -219 -140 -297 -289
-29 -56 -32 -70 -34 -166 -1 -58 2 -125 7 -150 27 -142 32 -201 23 -245 l-9
-40 -99 -32 c-55 -18 -105 -33 -111 -33 -6 0 -30 48 -54 108 -100 251 -197
461 -242 525 -25 35 -72 59 -123 62 -22 2 -71 10 -110 17 -102 21 -203 15
-271 -16 -123 -57 -264 -253 -264 -370 0 -18 10 -48 23 -67 60 -91 198 -100
485 -32 81 19 92 30 95 93 1 22 5 40 9 40 26 0 136 -203 197 -363 l29 -77 -36
-16 c-20 -8 -73 -28 -117 -44 -655 -232 -1149 -660 -1299 -1125 -54 -169 -71
-427 -40 -625 82 -524 433 -1074 950 -1490 321 -258 656 -429 949 -484 79 -15
294 -16 375 -1 19 3 62 11 95 17 33 5 71 12 85 15 14 2 52 11 85 20 33 8 69
17 80 19 11 2 31 8 45 13 14 6 45 15 70 21 142 37 465 170 630 261 299 164
449 318 595 609 79 158 169 404 191 520 3 14 10 43 16 65 11 44 16 64 23 110
3 17 10 53 15 80 10 51 16 99 25 195 3 30 7 75 10 100 10 103 5 433 -9 515 -2
17 -7 57 -11 90 -3 33 -20 121 -37 195 -135 595 -460 994 -937 1150 -116 38
-291 69 -393 70 l-46 0 47 93 c45 90 95 231 145 414 22 80 86 245 147 381 28
60 35 102 18 102 -8 0 -61 -27 -119 -60z m-1852 -2212 c40 -19 111 -96 113
-122 0 -6 3 -20 5 -31 21 -95 -16 -184 -100 -241 -111 -76 -278 -23 -332 106
-18 42 -20 123 -4 165 28 72 99 133 168 142 20 3 39 7 41 9 7 7 67 -9 109 -28z
m2364 -43 c121 -86 113 -253 -15 -326 l-42 -24 -885 1 c-807 0 -888 1 -916 17
-155 82 -143 296 20 353 22 8 292 11 913 10 l881 -1 44 -30z m-2384 -676 c163
-62 194 -278 57 -391 -141 -117 -365 -11 -367 174 0 56 7 81 39 130 54 86 173
124 271 87z m2337 -32 c51 -15 110 -75 126 -126 25 -85 -19 -183 -101 -227
-33 -17 -81 -18 -920 -18 l-885 -1 -47 28 c-79 46 -115 147 -83 232 17 43 49
76 93 99 l47 24 865 0 c624 0 876 -3 905 -11z m-2330 -702 c82 -33 140 -122
137 -212 -4 -162 -169 -269 -315 -205 -87 38 -138 116 -138 208 -1 164 162
272 316 209z m2371 -47 c111 -72 123 -218 26 -304 -21 -18 -53 -37 -72 -41
-19 -5 -426 -8 -905 -8 -965 1 -898 -4 -964 67 -79 85 -56 223 49 290 14 8 35
18 45 20 11 2 416 4 900 4 l880 -1 41 -27z"/>
</g>
</svg>
